<svg t="1767342512976" class="icon" viewBox="0 0 1267 1024" version="1.1" xmlns="http://www.w3.org/2000/svg" p-id="21691" width="1024" height="1024"><path d="M37.198081 273.019877C25.968472 242.138451 11.93146 214.064428 0 183.884853c18.949966-10.527759 47.023989-13.335161 63.868403-25.266621 3.509253-2.807402 6.316655-6.316655 8.422207-9.825908 47.72584-14.738862 95.451679-32.285127 141.773818-51.936943C308.112406 70.886909 401.458533 30.179575 496.910212 0c3.509253 22.459219 13.335161 39.303633 16.844414 62.464702 89.135024 7.018506 162.829335 11.93146 251.262509 16.844414 2.807402 9.124058 5.614805 17.546265 8.422207 26.670322 14.037012-30.179575 21.757368-65.973955 33.688828-97.557231 153.705278 61.762851 306.006854 124.929404 459.712132 186.692255-126.333105 256.175463-252.66621 512.350925-378.999315 767.824537L602.88965 962.938999c-7.720356 0.701851-4.211103-10.527759-8.422207-13.335161-78.607265 25.266621-156.51268 51.235093-237.225497 74.396162-103.873886-247.051405-210.555175-491.295408-313.02536-739.750514M169.847841 186.692255c-11.229609 2.807402-19.651816 8.422207-30.179575 11.93146C231.610692 417.601097 324.95682 634.472927 417.601097 852.046607c53.340644-14.037012 101.768334-32.986977 155.108979-47.023989 21.757368-68.781357 40.707334-140.370117 63.868403-207.045922 14.738862 72.992461 31.583276 145.283071 47.023989 217.573681l138.264565 0c98.259082-203.536669 200.729267-402.862234 298.286498-607.802605-84.92392-31.583276-164.233036-68.079507-249.156957-99.662783-30.881426 101.768334-64.570254 202.132968-97.557231 301.795751-29.477724-91.240576-57.551748-181.779301-87.731323-271.616175-34.390679-0.701851-61.762851-4.912954-92.644277-4.912954C568.498972 221.784784 545.337903 312.323509 517.263879 397.24743c-30.179575-101.768334-58.955449-204.94037-92.644277-303.199452-72.992461 27.372173-148.792324 52.638794-222.486635 79.309116 16.844414 57.551748 42.111035 115.805346 55.446196 171.953393C228.80329 292.671693 202.834818 236.523646 169.847841 186.692255zM796.600411 788.178204l-84.22207 0c22.459219-11.93146 45.620288-22.459219 68.781357-32.285127 70.886909-164.233036 141.071967-328.466073 214.064428-489.891707 3.509253-5.614805-7.018506 19.651816-9.825908 26.670322C922.933516 455.501028 859.766964 626.75257 796.600411 788.178204z" fill="#2d8cf0" p-id="21692"></path></svg>